# xmcd
#
# Track frame offsets: 
#        150
#        36871
#        51199
#        115515
#        175265
#        191446
#        257111
#        291889
#
# Disc length: 4156 seconds
#
# Revision: 1
# Processed by: cddbd v1.5.2PL0 Copyright (c) Steve Scherf et al.
# Submitted via: ExactAudioCopy v0.99pb5
#
DISCID=6c103a08
DTITLE=Andy Emler MegaOctet - Crouch, touch, engage
DYEAR=2008
DGENRE=Jazz
TTITLE0=Crouch, touch, engage
TTITLE1=Ouvertoire 2
TTITLE2=Funky sickness
TTITLE3=Mail to Elise (dedie à Elise Caron)
TTITLE4=Beautyfuler 2
TTITLE5=La regamuse
TTITLE6=Reouverture et Postlude
TTITLE7=Go down swinging
EXTD=YEAR: 2008
EXTT0=
EXTT1=
EXTT2=
EXTT3=
EXTT4=
EXTT5=
EXTT6=
EXTT7=
PLAYORDER=
